<?xml version="1.0" encoding="utf-8" ?>
<svg baseProfile="full" height="200mm" version="1.1" viewBox="0,0,200,200" width="200mm" xmlns="http://www.w3.org/2000/svg" xmlns:ev="http://www.w3.org/2001/xml-events" xmlns:xlink="http://www.w3.org/1999/xlink"><defs /><rect fill="#1a1a1a" height="200" width="200" x="0" y="0" /><text alignment-baseline="middle" fill="#e1ed5e" style="dominant-baseline: central; font-size:9.0px; font-family:Arial;" text-anchor="middle" x="100.0" y="100.0">2023</text><line stroke="#e1ed5e" stroke-width="0.3" x1="100.0" x2="100.0" y1="15.0" y2="10.0" /><path d="M 100.0 14.0 a86.0,86.0 0 0,1 42.46469731375804,11.215312516191453" fill="none" id="id1" stroke="none" /><text fill="#e1ed5e" style="font-size:6.75px; font-family:Arial;" text-anchor="middle"><textPath startOffset="22.20632615414155" xlink:href="#id1">January</textPath></text><line stroke="#e1ed5e" stroke-width="0.3" x1="143.23703022742887" x2="145.7803849466894" y1="26.81831364943548" y2="22.513508569990506" /><path d="M 143.74570117128098 25.957352633546492 a86.0,86.0 0 0,1 28.547481713284135,27.462654790039103" fill="none" id="id2" stroke="none" /><text fill="#e1ed5e" style="font-size:6.75px; font-family:Arial;" text-anchor="middle"><textPath startOffset="19.985693538727396" xlink:href="#id2">February</textPath></text><line stroke="#e1ed5e" stroke-width="0.3" x1="172.23445277983987" x2="176.4835382374775" y1="55.19839476539836" y2="52.563006222186495" /><path d="M 173.08426987136738 54.67131705675599 a86.0,86.0 0 0,1 12.851231095245387,41.99856678651699" fill="none" id="id3" stroke="none" /><text fill="#e1ed5e" style="font-size:6.75px; font-family:Arial;" text-anchor="middle"><textPath startOffset="22.20632615414155" xlink:href="#id3">March</textPath></text><path d="M 120.6074358757038 95.95851677861258 l 39.75006913613795 -7.7956927019774245 a61.50729343008998,61.50729343008998 0 0,0 0.19481490936982396,1.0407090357930406 l -39.87836976941763 7.110305588721821" fill="#aaff21" stroke="none" /><path d="M 120.98425023603335 99.18683210126433 l 42.113902318471574 -1.6319703144344588 a63.145510978002875,63.145510978002875 0 0,0 0.03274036272775782,1.0864932463073753 l -42.13575437565498 0.9068069207020846" fill="#8dff24" stroke="none" /><line stroke="#e1ed5e" stroke-width="0.3" x1="184.98032266829074" x2="189.97916517819016" y1="98.17113171792111" y2="98.06355123074" /><path d="M 185.9800911702706 98.14961562048488 a86.0,86.0 0 0,1 -9.607161424134198,41.387399972396054" fill="none" id="id4" stroke="none" /><text fill="#e1ed5e" style="font-size:6.75px; font-family:Arial;" text-anchor="middle"><textPath startOffset="21.466115282336823" xlink:href="#id4">April</textPath></text><path d="M 120.49622156327973 104.57218783832717 l 43.38241161490223 9.677517105802576 a65.44871173451381,65.44871173451381 0 0,0 -0.2547495551311212,1.0974544160895754 l -43.20940149384056 -10.422840179240715" fill="#67ff28" stroke="none" /><path d="M 120.41448212921028 104.9243191809786 l 43.846894226972466 10.576614234033128 a66.10448871239828,66.10448871239828 0 0,0 -0.2763441039646871,1.1038573277289123 l -43.65833880871272 -11.329799401159438" fill="#5cff2a" stroke="none" /><path d="M 120.02730092923936 106.31721596034902 l 43.69696914590087 13.783344639533903 a66.81927216783328,66.81927216783328 0 0,0 -0.35543954679054257,1.0939304416182938 l -43.453237348094085 -14.533473981129992" fill="#50ff2b" stroke="none" /><path d="M 119.41010516605496 108.01547362559984 l 42.55167033147853 17.571867249007123 a67.03710641010748,67.03710641010748 0 0,0 -0.4496243172176389,1.0627790690263288 l -42.242895033068585 -18.301720843699616" fill="#4dff2c" stroke="none" /><path d="M 119.12269723197855 108.67885076344098 l 40.494320748628624 18.378378441120002 a65.46970662167493,65.46970662167493 0 0,0 -0.47457862742229984,1.0222001429709273 l -40.17196750436649 -19.07269865136976" fill="#66ff29" stroke="none" /><line stroke="#e1ed5e" stroke-width="0.3" x1="174.80103733775053" x2="179.2010983576182" y1="140.37084112569926" y2="142.7455964860345" /><path d="M 175.68104954172406 140.8457921977663 a86.0,86.0 0 0,1 -30.038265399797805,32.042727171017184" fill="none" id="id5" stroke="none" /><text fill="#e1ed5e" style="font-size:6.75px; font-family:Arial;" text-anchor="middle"><textPath startOffset="22.206326154141568" xlink:href="#id5">May</textPath></text><path d="M 117.35343817320211 111.8261652097733 l 44.81513030824119 30.54098730366947 a75.23235021670679,75.23235021670679 0 0,0 -0.7384918297967812,1.0638525601455884 l -44.28277757128227 -31.307881126002076" fill="#3cffa2" stroke="none" /><path d="M 117.14729908036423 112.12312394758627 l 34.77246726174363 24.584100889698217 a63.585238005955695,63.585238005955695 0 0,0 -0.6395470082602226,0.8882748581113775 l -34.344140461107806 -25.179009353260724" fill="#86ff25" stroke="none" /><path d="M 116.498646956653 112.99209946851258 l 37.513784332880014 29.540774996495752 a68.74873194512523,68.74873194512523 0 0,0 -0.7401360410350035,0.923433512309982 l -36.99973037979016 -30.182136342383984" fill="#32ff2f" stroke="none" /><path d="M 116.27256486870786 113.27417163493432 l 36.66703110036727 29.91074044545498 a68.31937831069504,68.31937831069504 0 0,0 -0.7512008446059895,0.9048698094335931 l -36.146734255867734 -30.53747151200234" fill="#39ff2e" stroke="none" /><path d="M 115.56566222782051 114.09645910891815 l 44.447311855046884 40.25204356202521 a80.96491092346395,80.96491092346395 0 0,0 -0.9444117027147095,1.0249723797202186 l -43.74785374433645 -41.01116719654676" fill="#47ffff" stroke="none" /><path d="M 114.29624159901734 115.38237550388516 l 42.88872479705202 46.14712651165547 a84.0,84.0 0 0,0 -1.0676018021325442,0.9752289336536681 l -42.088023445452606 -46.878548211895726" fill="#4dd2ff" stroke="none" /><path d="M 113.20401910651253 116.32954008644616 l 31.812447184241417 39.34276581641726 a71.59530628364256,71.59530628364256 0 0,0 -0.9649769047710179,0.7666360142669958 l -31.130512786753048 -39.88453574468938" fill="#35ff61" stroke="none" /><line stroke="#e1ed5e" stroke-width="0.3" x1="143.8653032363475" x2="146.44561519142675" y1="172.8068346515853" y2="177.08958963109032" /><path d="M 144.38136562736335 173.6633856474863 a86.0,86.0 0 0,1 -40.68145358897372,12.25698825130547" fill="none" id="id6" stroke="none" /><text fill="#e1ed5e" style="font-size:6.75px; font-family:Arial;" text-anchor="middle"><textPath startOffset="21.466115282336833" xlink:href="#id6">June</textPath></text><path d="M 107.59598834532513 119.57807347666477 l 8.636196493750544 22.25912966515035 a44.875777334542335,44.875777334542335 0 0,0 -0.7225636515876126,0.27321174571649665 l -8.251762621402657 -22.404489660973475" fill="#ff0000" stroke="none" /><path d="M 106.2309692047433 120.05430185196036 l 13.949267992945666 44.895556654568 a68.01269067882143,68.01269067882143 0 0,0 -1.1209949666473678,0.33774658778892147 l -13.174398051858052 -45.12901861146265" fill="#3eff2e" stroke="none" /><line stroke="#e1ed5e" stroke-width="0.3" x1="102.19456741930631" x2="102.32365962044197" y1="184.97166512339345" y2="189.96999836594603" /><path d="M 102.22038585953345 185.97133177190398 a86.0,86.0 0 0,1 -42.740103519485714,-10.115201625700543" fill="none" id="id7" stroke="none" /><text fill="#e1ed5e" style="font-size:6.75px; font-family:Arial;" text-anchor="middle"><textPath startOffset="22.20632615414155" xlink:href="#id7">July</textPath></text><path d="M 91.7346041902142 119.30500536409082 l -16.58094594544795 38.72715327674891 a63.12742775635216,63.12742775635216 0 0,0 -0.9952469615316726,-0.4362870203233508 l 17.245113581637366 -38.436001703131105" fill="#8eff24" stroke="none" /><line stroke="#e1ed5e" stroke-width="0.3" x1="58.666819895761336" x2="56.23545636021788" y1="174.27360380694188" y2="178.64263932499728" /><path d="M 58.180547188652646 175.14741091055294 a86.0,86.0 0 0,1 -31.652253787137756,-30.449443065178592" fill="none" id="id8" stroke="none" /><text fill="#e1ed5e" style="font-size:6.75px; font-family:Arial;" text-anchor="middle"><textPath startOffset="22.20632615414155" xlink:href="#id8">August</textPath></text><line stroke="#e1ed5e" stroke-width="0.3" x1="26.63291911575756" x2="22.317208475507996" y1="142.92168965132927" y2="145.44649492493687" /><path d="M 25.769776987707644 143.4266507060508 a86.0,86.0 0 0,1 -11.730757126820373,-40.83630448921669" fill="none" id="id9" stroke="none" /><text fill="#e1ed5e" style="font-size:6.75px; font-family:Arial;" text-anchor="middle"><textPath startOffset="21.46611528233685" xlink:href="#id9">September</textPath></text><line stroke="#e1ed5e" stroke-width="0.3" x1="15.007084014347285" x2="10.007500721073583" y1="101.09737516637583" y2="101.16192664675087" /><path d="M 14.007167355692545 101.11028546245083 a86.0,86.0 0 0,1 10.666146001902534,-42.60595125391555" fill="none" id="id10" stroke="none" /><text fill="#e1ed5e" style="font-size:6.75px; font-family:Arial;" text-anchor="middle"><textPath startOffset="22.20632615414155" xlink:href="#id10">October</textPath></text><line stroke="#e1ed5e" stroke-width="0.3" x1="26.266209847984243" x2="21.928928074336255" y1="57.711370442889674" y2="55.22380399835377" /><path d="M 25.398753493254645 57.213857153982495 a86.0,86.0 0 0,1 29.58750427330803,-30.492523968695096" fill="none" id="id11" stroke="none" /><text fill="#e1ed5e" style="font-size:6.75px; font-family:Arial;" text-anchor="middle"><textPath startOffset="21.46611528233685" xlink:href="#id11">November</textPath></text><line stroke="#e1ed5e" stroke-width="0.3" x1="56.762969772571076" x2="54.21961505331055" y1="26.818313649435495" y2="22.513508569990535" /><path d="M 56.25429882871897 25.957352633546506 a86.0,86.0 0 0,1 42.265352541879196,-11.944610805530505" fill="none" id="id12" stroke="none" /><text fill="#e1ed5e" style="font-size:6.75px; font-family:Arial;" text-anchor="middle"><textPath startOffset="22.20632615414155" xlink:href="#id12">December</textPath></text></svg>